# Blender v2.91.2 OBJ File: 'Spaceship.blend'
# www.blender.org
mtllib Spaceship.mtl
o Cube_Cube.001
v -2.516925 0.082159 -2.295241
v -2.470320 0.674266 -2.507211
v 2.347064 -0.599732 -0.000003
v 3.549174 0.729269 -0.000003
v -2.470320 0.377284 -2.507211
v 3.618850 -0.301569 -0.000003
v -2.756121 -0.875160 -1.460347
v -2.756121 -1.698297 -1.460347
v -2.756121 -1.172142 -1.460347
v 0.557389 -0.592941 -1.047143
v 2.016737 0.349365 -1.122388
v -2.756121 -1.325451 -0.730175
v 2.016737 0.149163 -1.122388
v -2.514662 -0.070477 -0.541649
v -2.756121 -0.964392 -0.574667
v -2.470320 0.674266 -1.777039
v 0.271333 -0.903433 -0.000003
v -2.470320 0.377284 -1.777039
v -2.364866 0.076099 -2.256673
v -1.348711 -0.070477 -0.833138
v -1.350235 -1.323281 -0.847574
v -5.130447 0.186349 -6.036648
v -2.756121 -0.278227 -0.574667
v -2.514662 -0.070477 -0.241462
v -0.545382 -0.002904 -0.775920
v -0.559811 -0.070477 -0.241462
v -2.420374 0.259080 -0.335750
v -0.842674 0.259080 -0.335750
v -2.420374 0.259080 -0.468032
v -1.369381 0.259080 -0.730780
v -2.514662 0.259080 -0.241462
v -0.559811 0.259080 -0.241462
v -2.514662 0.259080 -0.541649
v -1.348711 0.259080 -0.833138
v -2.420374 -0.050071 -0.335750
v -0.842674 -0.050071 -0.335750
v -2.420374 -0.050071 -0.468032
v -1.369381 -0.050071 -0.730780
v -2.756121 -0.278227 -0.155511
v -2.756121 -0.070477 -0.730175
v -2.756121 -0.964392 -0.155511
v -2.756121 -1.172142 -0.730175
v 1.124926 0.731791 -1.257367
v 0.698162 -0.301569 -1.687418
v 2.300275 0.349365 -1.046151
v 2.300275 0.149163 -1.046151
v 2.502457 0.673180 -0.993424
v 2.502457 -0.174653 -0.993424
v 1.814555 0.673180 -1.337375
v 1.814555 -0.174653 -1.337375
v 2.149408 0.346116 -1.487552
v 2.149090 0.145970 -1.482821
v 1.851693 0.349365 -1.491086
v 1.851693 0.149163 -1.491086
v 2.163353 0.342533 -1.638203
v 2.163035 0.142387 -1.633471
v 1.851693 0.349365 -1.642423
v 1.851693 0.149163 -1.642423
v 3.328499 0.302933 -1.428688
v 3.328317 0.188143 -1.425974
v 3.333031 0.301769 -1.477651
v 3.332849 0.186978 -1.474936
v 3.323860 0.346820 -1.378853
v 3.323543 0.146675 -1.374122
v 3.337806 0.343237 -1.529504
v 3.337488 0.143091 -1.524772
v 3.328499 0.302933 -1.428688
v 3.328317 0.188143 -1.425974
v 3.333031 0.301769 -1.477651
v 3.332849 0.186978 -1.474936
v 3.859757 0.303252 -1.379518
v 3.859574 0.188462 -1.376805
v 3.864289 0.302087 -1.428481
v 3.864106 0.187297 -1.425767
v -4.604894 -0.278227 -0.155511
v -4.604894 -0.964392 -0.155511
v -4.604894 -0.278227 -0.574667
v -4.604894 -0.964392 -0.574667
v -2.516925 0.082159 2.295235
v -2.470320 0.674266 2.507205
v -2.756121 -1.325451 -0.000003
v -2.756121 -0.070477 -0.000003
v -2.470320 0.377284 2.507205
v -2.756121 -1.172142 -0.000003
v -2.756121 -0.875160 1.460341
v -2.756121 -1.698297 1.460341
v -2.756121 -1.172142 1.460341
v 0.557389 -0.592941 1.047137
v 2.016737 0.349365 1.122382
v -2.756121 -1.325451 0.730169
v 2.016737 0.149163 1.122382
v -2.514662 -0.070477 0.541644
v -2.756121 -0.964392 0.574661
v -2.470320 0.674266 1.777033
v 0.164567 -0.070477 -0.000003
v -2.470320 0.377284 1.777033
v -2.364866 0.076099 2.256666
v -1.348711 -0.070477 0.833131
v -1.350235 -1.323281 0.847567
v -5.130447 0.186349 6.036642
v -2.756121 -0.278227 0.574661
v -2.514662 -0.070477 0.241456
v -0.545382 -0.002904 0.775913
v -0.559811 -0.070477 0.241456
v -2.420374 0.259080 0.335744
v -0.842674 0.259080 0.335744
v -2.420374 0.259080 0.468026
v -1.369381 0.259080 0.730774
v -2.514662 0.259080 0.241456
v -0.559811 0.259080 0.241456
v -2.514662 0.259080 0.541644
v -1.348711 0.259080 0.833131
v -2.420374 -0.050071 0.335744
v -0.842674 -0.050071 0.335744
v -2.420374 -0.050071 0.468026
v -1.369381 -0.050071 0.730774
v -2.756121 -0.278227 0.155505
v -2.756121 -0.070477 0.730169
v -2.756121 -0.964392 0.155505
v -2.756121 -1.172142 0.730169
v 1.124926 0.731791 1.257361
v 0.698162 -0.301569 1.687412
v 2.300275 0.349365 1.046145
v 2.300275 0.149163 1.046145
v 2.502457 0.673180 0.993418
v 2.502457 -0.174653 0.993418
v 1.814555 0.673180 1.337368
v 1.814555 -0.174653 1.337368
v 2.149408 0.346116 1.487546
v 2.149090 0.145970 1.482815
v 1.851693 0.349365 1.491080
v 1.851693 0.149163 1.491080
v 2.163353 0.342533 1.638197
v 2.163035 0.142387 1.633465
v 1.851693 0.349365 1.642417
v 1.851693 0.149163 1.642417
v 3.328499 0.302933 1.428681
v 3.328317 0.188143 1.425968
v 3.333031 0.301769 1.477644
v 3.332849 0.186978 1.474931
v 3.323860 0.346820 1.378847
v 3.323543 0.146675 1.374115
v 3.337806 0.343237 1.529497
v 3.337488 0.143091 1.524766
v 3.328499 0.302933 1.428681
v 3.328317 0.188143 1.425968
v 3.333031 0.301769 1.477644
v 3.332849 0.186978 1.474931
v 3.859757 0.303252 1.379512
v 3.859574 0.188462 1.376798
v 3.864289 0.302087 1.428475
v 3.864106 0.187297 1.425761
v -4.604894 -0.278227 0.155505
v -4.604894 -0.964392 0.155505
v -4.604894 -0.278227 0.574661
v -4.604894 -0.964392 0.574661
v 0.698162 0.800096 -1.687418
v 3.618850 0.800096 -0.000003
v -1.295777 -0.070477 -1.095261
v 0.247953 0.000045 -0.000003
v 0.698162 0.800096 1.687412
v -1.295777 -0.070477 1.095255
v 0.247953 0.160022 -0.000003
v 3.549174 0.889247 -0.000003
v 1.124926 0.891769 -1.257367
v -0.545382 0.157073 -0.775920
v 1.124926 0.891769 1.257361
v -0.545382 0.157073 0.775913
vt 0.500000 0.218750
vt 0.625000 0.218750
vt 0.625000 0.250000
vt 0.500000 0.250000
vt 0.517008 0.443567
vt 0.517008 0.431433
vt 0.517008 0.431433
vt 0.517008 0.443567
vt 0.187500 0.609375
vt 0.250000 0.687500
vt 0.125000 0.625000
vt 0.125000 0.593750
vt 0.812500 0.546875
vt 0.875000 0.531250
vt 0.875000 0.562500
vt 0.875000 0.593750
vt 0.375000 0.375000
vt 0.500000 0.375000
vt 0.500000 0.500000
vt 0.375000 0.500000
vt 0.375000 0.218750
vt 0.375000 0.250000
vt 0.375000 0.156250
vt 0.500000 0.156250
vt 0.500000 0.187500
vt 0.375000 0.187500
vt 0.625000 0.156250
vt 0.625000 0.187500
vt 0.623206 0.149595
vt 0.501794 0.149595
vt 0.501794 0.149595
vt 0.623206 0.149595
vt 0.375000 0.125000
vt 0.500000 0.125000
vt 0.864666 0.609499
vt 0.781002 0.567667
vt 0.781002 0.567667
vt 0.864666 0.609499
vt 0.125000 0.531250
vt 0.125000 0.562500
vt 0.500000 0.375000
vt 0.125000 0.500000
vt 0.250000 0.625000
vt 0.783401 0.548425
vt 0.745746 0.556593
vt 0.745746 0.556593
vt 0.783401 0.548425
vt 0.750000 0.500000
vt 0.875000 0.500000
vt 0.375000 0.750000
vt 0.500000 0.250000
vt 0.625000 0.375000
vt 0.625000 0.375000
vt 0.864666 0.596652
vt 0.875000 0.625000
vt 0.814765 0.559226
vt 0.750000 0.562500
vt 0.860631 0.597785
vt 0.860631 0.603446
vt 0.860631 0.603446
vt 0.860631 0.597785
vt 0.864666 0.596652
vt 0.814765 0.559226
vt 0.793108 0.569685
vt 0.815650 0.564049
vt 0.793108 0.569685
vt 0.815650 0.564049
vt 0.623206 0.131655
vt 0.501794 0.131655
vt 0.625000 0.125000
vt 0.610600 0.452220
vt 0.610600 0.422780
vt 0.625000 0.500000
vt 0.514400 0.452220
vt 0.514401 0.422780
vt 0.607992 0.443567
vt 0.607992 0.431433
vt 0.607992 0.431433
vt 0.607992 0.431433
vt 0.517008 0.431433
vt 0.607992 0.443567
vt 0.607992 0.443567
vt 0.517008 0.443567
vt 0.607992 0.443567
vt 0.607992 0.443567
vt 0.605130 0.443567
vt 0.605130 0.443567
vt 0.605130 0.443567
vt 0.605130 0.443567
vt 0.517008 0.443567
vt 0.517008 0.443567
vt 0.519870 0.443567
vt 0.605130 0.443567
vt 0.605130 0.443567
vt 0.519870 0.443567
vt 0.519870 0.443567
vt 0.519870 0.443567
vt 0.519870 0.443567
vt 0.519870 0.443567
vt 0.501794 0.131655
vt 0.623206 0.131655
vt 0.500000 0.218750
vt 0.500000 0.250000
vt 0.625000 0.250000
vt 0.625000 0.218750
vt 0.517008 0.443567
vt 0.517008 0.443567
vt 0.517008 0.431433
vt 0.517008 0.431433
vt 0.187500 0.609375
vt 0.125000 0.593750
vt 0.812500 0.546875
vt 0.875000 0.593750
vt 0.875000 0.562500
vt 0.875000 0.531250
vt 0.375000 0.375000
vt 0.500000 0.375000
vt 0.375000 0.218750
vt 0.375000 0.250000
vt 0.375000 0.156250
vt 0.375000 0.187500
vt 0.500000 0.187500
vt 0.500000 0.156250
vt 0.625000 0.187500
vt 0.625000 0.156250
vt 0.623206 0.149595
vt 0.623206 0.149595
vt 0.501794 0.149595
vt 0.501794 0.149595
vt 0.864666 0.609499
vt 0.864666 0.609499
vt 0.781002 0.567667
vt 0.781002 0.567667
vt 0.125000 0.531250
vt 0.125000 0.562500
vt 0.500000 0.375000
vt 0.125000 0.500000
vt 0.250000 0.625000
vt 0.783401 0.548425
vt 0.783401 0.548425
vt 0.750000 0.500000
vt 0.875000 0.500000
vt 0.500000 0.250000
vt 0.625000 0.375000
vt 0.625000 0.375000
vt 0.864666 0.596652
vt 0.814765 0.559226
vt 0.860631 0.597785
vt 0.860631 0.597785
vt 0.860631 0.603446
vt 0.860631 0.603446
vt 0.864666 0.596652
vt 0.814765 0.559226
vt 0.793108 0.569685
vt 0.815650 0.564049
vt 0.793108 0.569685
vt 0.815650 0.564049
vt 0.623206 0.131655
vt 0.501794 0.131655
vt 0.610600 0.452220
vt 0.610600 0.422780
vt 0.514400 0.452220
vt 0.514401 0.422780
vt 0.607992 0.443567
vt 0.607992 0.431433
vt 0.517008 0.431433
vt 0.607992 0.431433
vt 0.607992 0.431433
vt 0.607992 0.443567
vt 0.517008 0.443567
vt 0.607992 0.443567
vt 0.607992 0.443567
vt 0.607992 0.443567
vt 0.605130 0.443567
vt 0.605130 0.443567
vt 0.605130 0.443567
vt 0.605130 0.443567
vt 0.517008 0.443567
vt 0.517008 0.443567
vt 0.519870 0.443567
vt 0.605130 0.443567
vt 0.605130 0.443567
vt 0.519870 0.443567
vt 0.519870 0.443567
vt 0.519870 0.443567
vt 0.519870 0.443567
vt 0.519870 0.443567
vt 0.501794 0.131655
vt 0.623206 0.131655
vt 0.729189 0.504227
vt 0.628554 0.505066
vt 0.729189 0.504227
vt 0.729189 0.504227
vt 0.628554 0.505066
vt 0.729189 0.504227
vt 0.875000 0.500000
vt 0.875000 0.500000
vn -1.0000 0.0000 0.0000
vn -0.0064 -1.0000 0.0065
vn 0.0982 -0.9822 0.1604
vn -0.5171 0.7578 0.3980
vn 0.2117 -0.9058 -0.3669
vn -0.9652 -0.1803 0.1895
vn 0.0000 0.0000 -1.0000
vn 0.0085 -0.8246 -0.5656
vn 0.0000 0.0000 1.0000
vn 0.4302 -0.7172 -0.5482
vn -0.2642 -0.9316 0.2495
vn 0.1654 -0.6376 -0.7524
vn -0.6992 0.0000 0.7149
vn -0.9374 0.0773 -0.3394
vn -0.0485 0.8663 0.4972
vn 0.2351 -0.9475 -0.2167
vn -0.7424 0.0000 -0.6700
vn -0.7986 0.0000 0.6019
vn 0.5980 0.0000 -0.8015
vn 0.0000 1.0000 0.0000
vn 1.0000 0.0000 0.0000
vn 0.6000 0.0000 -0.8000
vn -0.2425 0.0000 -0.9701
vn 0.2425 0.0000 0.9701
vn -0.6000 0.0000 0.8000
vn 0.2023 0.9110 -0.3594
vn 0.6648 0.0000 -0.7471
vn 0.2023 -0.9110 -0.3594
vn 0.2992 0.0000 -0.9542
vn 0.2524 0.0000 -0.9676
vn 0.3869 -0.2241 -0.8945
vn 0.3869 0.2241 -0.8945
vn 0.7285 0.0000 -0.6851
vn 0.9456 -0.0046 -0.3253
vn -0.9127 0.0000 0.4086
vn 0.0065 1.0000 -0.0065
vn 0.0209 -0.0118 -0.9997
vn 0.0167 0.9998 -0.0111
vn -0.0167 -0.9998 0.0111
vn 0.0016 0.9997 -0.0236
vn 0.0921 -0.0237 -0.9955
vn -0.0016 -0.9997 0.0236
vn -0.0921 0.0237 0.9955
vn 0.9957 0.0006 0.0922
vn 0.0000 -1.0000 0.0000
vn -0.0064 -1.0000 -0.0065
vn 0.0982 -0.9822 -0.1604
vn -0.5171 0.7578 -0.3980
vn 0.2117 -0.9058 0.3669
vn -0.9652 -0.1803 -0.1895
vn 0.0085 -0.8246 0.5656
vn 0.4302 -0.7172 0.5482
vn -0.2642 -0.9316 -0.2495
vn 0.1654 -0.6376 0.7524
vn -0.6992 0.0000 -0.7149
vn -0.9374 0.0773 0.3394
vn -0.0485 0.8663 -0.4972
vn 0.2351 -0.9475 0.2167
vn -0.7424 0.0000 0.6700
vn -0.7986 0.0000 -0.6019
vn 0.5980 0.0000 0.8015
vn 0.6000 0.0000 0.8000
vn -0.2425 0.0000 0.9701
vn 0.2425 0.0000 -0.9701
vn -0.6000 0.0000 -0.8000
vn 0.2023 0.9110 0.3594
vn 0.6648 0.0000 0.7471
vn 0.2023 -0.9110 0.3594
vn 0.2992 0.0000 0.9542
vn 0.2524 0.0000 0.9676
vn 0.3869 -0.2241 0.8945
vn 0.3869 0.2241 0.8945
vn 0.7285 0.0000 0.6851
vn 0.9456 -0.0046 0.3253
vn -0.9127 0.0000 -0.4086
vn 0.0065 1.0000 0.0065
vn 0.0209 -0.0118 0.9997
vn 0.0167 0.9998 0.0111
vn -0.0167 -0.9998 -0.0111
vn 0.0016 0.9997 0.0236
vn 0.0921 -0.0237 0.9955
vn -0.0016 -0.9997 -0.0236
vn -0.0921 0.0237 -0.9955
vn 0.9957 0.0006 -0.0922
vn -0.2710 0.8270 0.4926
vn -0.2617 0.8728 0.4119
vn -0.2763 0.9021 0.3314
vn -0.2617 0.8728 -0.4119
vn -0.2763 0.9021 -0.3314
vn -0.2710 0.8270 -0.4926
vn 0.4604 0.0000 -0.8877
vn 0.4604 0.0000 0.8877
vn -0.2770 0.0000 0.9609
vn -0.2770 0.0000 -0.9609
vn -0.0049 0.9911 -0.1333
vn -0.0049 0.9911 0.1333
vn -0.2304 0.9023 0.3644
vn -0.2304 0.9023 -0.3644
usemtl Material.003
s off
f 18/1/1 16/2/1 2/3/1 5/4/1
f 46/5/2 13/6/2 54/7/2 52/8/2
f 21/9/3 17/10/3 81/11/3 12/12/3
f 159/13/4 16/14/4 7/15/4 40/16/4
f 10/17/5 44/18/5 6/19/5 3/20/5
f 19/21/6 18/1/6 5/4/6 1/22/6
f 12/23/1 42/24/1 9/25/1 8/26/1
f 42/24/1 40/27/1 7/28/1 9/25/1
f 23/29/7 15/30/7 78/31/7 77/32/7
f 81/33/1 84/34/1 42/24/1 12/23/1
f 1/22/8 5/4/8 44/18/8 10/17/8
f 24/35/9 26/36/9 32/37/9 31/38/9
f 19/39/10 21/9/10 12/12/10 8/40/10
f 44/18/11 5/4/11 22/41/11
f 1/42/12 10/43/12 21/9/12 19/39/12
f 25/44/13 160/45/13 163/46/13 166/47/13
f 8/26/14 9/25/14 18/1/14 19/21/14
f 157/48/15 2/49/15 16/14/15 159/13/15
f 10/43/16 3/50/16 17/10/16 21/9/16
f 9/25/17 7/28/17 16/2/17 18/1/17
f 5/4/18 2/3/18 22/51/18
f 157/52/19 44/18/19 22/53/19
f 24/35/20 14/54/20 40/16/20 82/55/20
f 14/54/20 20/56/20 159/13/20 40/16/20
f 26/36/20 24/35/20 82/55/20 95/57/20
f 20/56/20 26/36/20 95/57/20 159/13/20
f 29/58/21 27/59/21 35/60/21 37/61/21
f 14/54/1 24/35/1 31/38/1 33/62/1
f 26/36/22 20/56/22 34/63/22 32/37/22
f 20/56/23 14/54/23 33/62/23 34/63/23
f 28/64/20 27/59/20 31/38/20 32/37/20
f 27/59/20 29/58/20 33/62/20 31/38/20
f 29/58/20 30/65/20 34/63/20 33/62/20
f 30/65/20 28/64/20 32/37/20 34/63/20
f 36/66/20 38/67/20 37/61/20 35/60/20
f 30/65/24 29/58/24 37/61/24 38/67/24
f 27/59/7 28/64/7 36/66/7 35/60/7
f 28/64/25 30/65/25 38/67/25 36/66/25
f 39/68/1 41/69/1 84/34/1 82/70/1
f 23/29/1 39/68/1 82/70/1 40/27/1
f 41/69/1 15/30/1 42/24/1 84/34/1
f 15/30/1 23/29/1 40/27/1 42/24/1
f 47/71/26 49/72/26 157/52/26 158/73/26
f 48/74/27 47/71/27 158/73/27 6/19/27
f 50/75/28 48/74/28 6/19/28 44/18/28
f 49/72/29 50/75/29 44/18/29 157/52/29
f 46/5/30 45/76/30 47/71/30 48/74/30
f 45/76/31 11/77/31 49/72/31 47/71/31
f 13/6/32 46/5/32 48/74/32 50/75/32
f 11/77/33 13/6/33 50/75/33 49/72/33
f 54/7/1 53/78/1 57/79/1 58/80/1
f 45/76/34 46/5/34 52/8/34 51/81/34
f 13/6/35 11/77/35 53/78/35 54/7/35
f 11/77/36 45/76/36 51/81/36 53/78/36
f 58/80/37 57/79/37 55/82/37 56/83/37
f 53/78/38 51/81/38 55/82/38 57/79/38
f 52/8/39 54/7/39 58/80/39 56/83/39
f 55/82/40 51/81/40 63/84/40 65/85/40
f 61/86/40 59/87/40 71/88/40 73/89/40
f 56/83/41 55/82/41 65/85/41 66/90/41
f 52/8/42 56/83/42 66/90/42 64/91/42
f 51/81/43 52/8/43 64/91/43 63/84/43
f 68/92/44 67/93/44 63/84/44 64/91/44
f 69/94/44 70/95/44 66/90/44 65/85/44
f 67/93/44 69/94/44 65/85/44 63/84/44
f 70/95/44 68/92/44 64/91/44 66/90/44
f 60/96/9 59/87/9 67/93/9 68/92/9
f 61/86/9 62/97/9 70/95/9 69/94/9
f 59/87/9 61/86/9 69/94/9 67/93/9
f 62/97/9 60/96/9 68/92/9 70/95/9
f 71/88/44 72/98/44 74/99/44 73/89/44
f 59/87/43 60/96/43 72/98/43 71/88/43
f 60/96/42 62/97/42 74/99/42 72/98/42
f 62/97/41 61/86/41 73/89/41 74/99/41
f 76/100/1 75/101/1 77/32/1 78/31/1
f 41/69/9 39/68/9 75/101/9 76/100/9
f 15/30/45 41/69/45 76/100/45 78/31/45
f 96/102/1 83/103/1 80/104/1 94/105/1
f 124/106/46 130/107/46 132/108/46 91/109/46
f 99/110/47 90/111/47 81/11/47 17/10/47
f 162/112/48 118/113/48 85/114/48 94/115/48
f 88/116/49 3/20/49 6/19/49 122/117/49
f 97/118/50 79/119/50 83/103/50 96/102/50
f 90/120/1 86/121/1 87/122/1 120/123/1
f 120/123/1 87/122/1 85/124/1 118/125/1
f 101/126/9 155/127/9 156/128/9 93/129/9
f 81/33/1 90/120/1 120/123/1 84/34/1
f 79/119/51 88/116/51 122/117/51 83/103/51
f 102/130/7 109/131/7 110/132/7 104/133/7
f 97/134/52 86/135/52 90/111/52 99/110/52
f 122/117/53 100/136/53 83/103/53
f 79/137/54 97/134/54 99/110/54 88/138/54
f 160/45/55 103/139/55 168/140/55 163/46/55
f 86/121/56 97/118/56 96/102/56 87/122/56
f 161/141/57 162/112/57 94/115/57 80/142/57
f 88/138/58 99/110/58 17/10/58 3/50/58
f 87/122/59 96/102/59 94/105/59 85/124/59
f 83/103/60 100/143/60 80/104/60
f 161/144/61 100/145/61 122/117/61
f 102/130/20 82/55/20 118/113/20 92/146/20
f 92/146/20 118/113/20 162/112/20 98/147/20
f 104/133/20 95/57/20 82/55/20 102/130/20
f 98/147/20 162/112/20 95/57/20 104/133/20
f 107/148/21 115/149/21 113/150/21 105/151/21
f 92/146/1 111/152/1 109/131/1 102/130/1
f 104/133/62 110/132/62 112/153/62 98/147/62
f 98/147/63 112/153/63 111/152/63 92/146/63
f 106/154/20 110/132/20 109/131/20 105/151/20
f 105/151/20 109/131/20 111/152/20 107/148/20
f 107/148/20 111/152/20 112/153/20 108/155/20
f 108/155/20 112/153/20 110/132/20 106/154/20
f 114/156/20 113/150/20 115/149/20 116/157/20
f 108/155/64 116/157/64 115/149/64 107/148/64
f 105/151/9 113/150/9 114/156/9 106/154/9
f 106/154/65 114/156/65 116/157/65 108/155/65
f 117/158/1 82/70/1 84/34/1 119/159/1
f 101/126/1 118/125/1 82/70/1 117/158/1
f 119/159/1 84/34/1 120/123/1 93/129/1
f 93/129/1 120/123/1 118/125/1 101/126/1
f 125/160/66 158/73/66 161/144/66 127/161/66
f 126/162/67 6/19/67 158/73/67 125/160/67
f 128/163/68 122/117/68 6/19/68 126/162/68
f 127/161/69 161/144/69 122/117/69 128/163/69
f 124/106/70 126/162/70 125/160/70 123/164/70
f 123/164/71 125/160/71 127/161/71 89/165/71
f 91/109/72 128/163/72 126/162/72 124/106/72
f 89/165/73 127/161/73 128/163/73 91/109/73
f 132/108/1 136/166/1 135/167/1 131/168/1
f 123/164/74 129/169/74 130/107/74 124/106/74
f 91/109/75 132/108/75 131/168/75 89/165/75
f 89/165/76 131/168/76 129/169/76 123/164/76
f 136/166/77 134/170/77 133/171/77 135/167/77
f 131/168/78 135/167/78 133/171/78 129/169/78
f 130/107/79 134/170/79 136/166/79 132/108/79
f 133/171/80 143/172/80 141/173/80 129/169/80
f 139/174/80 151/175/80 149/176/80 137/177/80
f 134/170/81 144/178/81 143/172/81 133/171/81
f 130/107/82 142/179/82 144/178/82 134/170/82
f 129/169/83 141/173/83 142/179/83 130/107/83
f 146/180/84 142/179/84 141/173/84 145/181/84
f 147/182/84 143/172/84 144/178/84 148/183/84
f 145/181/84 141/173/84 143/172/84 147/182/84
f 148/183/84 144/178/84 142/179/84 146/180/84
f 138/184/9 146/180/9 145/181/9 137/177/9
f 139/174/9 147/182/9 148/183/9 140/185/9
f 137/177/9 145/181/9 147/182/9 139/174/9
f 140/185/9 148/183/9 146/180/9 138/184/9
f 149/176/84 151/175/84 152/186/84 150/187/84
f 137/177/83 149/176/83 150/187/83 138/184/83
f 138/184/82 150/187/82 152/186/82 140/185/82
f 140/185/81 152/186/81 151/175/81 139/174/81
f 154/188/1 156/128/1 155/127/1 153/189/1
f 119/159/7 154/188/7 153/189/7 117/158/7
f 93/129/45 156/128/45 154/188/45 119/159/45
f 43/190/85 4/191/85 158/73/85 157/48/85
f 25/44/86 43/190/86 157/48/86 159/13/86
f 160/45/87 25/44/87 159/13/87 95/57/87
f 121/192/88 103/139/88 162/112/88 161/141/88
f 103/139/89 160/45/89 95/57/89 162/112/89
f 4/191/90 121/192/90 161/141/90 158/73/90
f 4/191/91 43/190/91 165/193/91 164/194/91
f 121/192/92 4/191/92 164/194/92 167/195/92
f 103/139/93 121/192/93 167/195/93 168/140/93
f 43/190/94 25/44/94 166/47/94 165/193/94
usemtl Material.004
f 2/49/95 157/48/95 22/196/95
f 80/142/96 100/197/96 161/141/96
f 164/194/97 165/193/97 166/47/97 163/46/97
f 164/194/98 163/46/98 168/140/98 167/195/98
usemtl Material.005
f 39/68/20 23/29/20 77/32/20 75/101/20
f 117/158/20 153/189/20 155/127/20 101/126/20
